# xmcd
# 
# Track frame offsets:
#     150
#     17285
#     36845
#     51740
#     68422
#     92807
#     106892
#     124027
#     143590
#     158485
#     175170
# 
# Disc length: 2659
# 
# Revision: 1
# Processed by: cddbd v1.5.2PL0 Copyright (c) Steve Scherf et al.
# Submitted via: fre:ac v1.0.31
# 
DISCID=830a610b
DTITLE=Lapis Lazuli - GUILTY GEAR X RISING FORCE OF GEAR IMAGE VOCAL TRACKS-SIDE III DESTROY!!-
DYEAR=2001
DGENRE=Rock
TTITLE0=NO MERCY（ソルVSカイのテーマ）
TTITLE1=FUUGA（アンジのテーマ）
TTITLE2=BURLY HEART（ポチョムキンのテーマ）
TTITLE3=MAKE ONESELF（アクセルのテーマ）
TTITLE4=NAKED EYE（LAPIS LAZULI'S IMAGE VOCAL TRACKS）
TTITLE5=BLUE WATER BLUE SKY（RE-MIX OF DESTROY!! VER.）
TTITLE6=NO MERCY（INSTRUMENT）
TTITLE7=FUUGA（INSTRUMENT）
TTITLE8=BURLY HEART（INSTRUMENT）
TTITLE9=MAKE ONESELF（INSTRUMENT）
TTITLE10=NAKED EYE（INSTRUMENT）
EXTD=
EXTT0=
EXTT1=
EXTT2=
EXTT3=
EXTT4=
EXTT5=
EXTT6=
EXTT7=
EXTT8=
EXTT9=
EXTT10=
PLAYORDER=
